<svg xmlns="http://www.w3.org/2000/svg" version="1.1" xmlns:xlink="http://www.w3.org/1999/xlink" xmlns:svgjs="http://svgjs.dev/svgjs" width="1000" height="1000" viewBox="0 0 1000 1000"><rect width="1000" height="1000" fill="#001f3f"></rect><g transform="matrix(0.7,0,0,0.7,150,281.25)"><svg viewBox="0 0 576 360" data-background-color="#001f3f" preserveAspectRatio="xMidYMid meet" height="625" width="1000" xmlns="http://www.w3.org/2000/svg" xmlns:xlink="http://www.w3.org/1999/xlink"><g id="tight-bounds" transform="matrix(1,0,0,1,0,0)"><svg viewBox="0 0 576 360" height="360" width="576"><g><svg></svg></g><g><svg viewBox="0 0 576 360" height="360" width="576"><g><path xmlns="http://www.w3.org/2000/svg" d="M132.115 90l155.885-90 155.885 90v180l-155.885 90-155.885-90zM137.788 266.725l150.212 86.725 150.212-86.725v-173.45l-150.212-86.725-150.212 86.725z" fill="#ffffff" fill-rule="nonzero" stroke="none" stroke-width="1" stroke-linecap="butt" stroke-linejoin="miter" stroke-miterlimit="10" stroke-dasharray="" stroke-dashoffset="0" font-family="none" font-weight="none" font-size="none" text-anchor="none" style="mix-blend-mode: normal" data-fill-palette-color="tertiary"></path></g><g transform="matrix(1,0,0,1,172.8,142.2602269968784)"><svg viewBox="0 0 230.4 75.4795460062432" height="75.4795460062432" width="230.4"><g><svg viewBox="0 0 440.3958697481972 144.27465413028878" height="75.4795460062432" width="230.4"><g><rect width="10.842364334093755" height="144.27465413028878" x="258.7831527070517" y="0" fill="#ffffff" opacity="1" stroke-width="0" stroke="transparent" fill-opacity="1" class="rect-o-0" data-fill-palette-color="primary" rx="1%" id="o-0" data-palette-color="#ffffff"></rect></g><g transform="matrix(1,0,0,1,0,12.022887844190727)"><svg viewBox="0 0 230.4 120.22887844190733" height="120.22887844190733" width="230.4"><g id="textblocktransform"><svg viewBox="0 0 230.4 120.22887844190733" height="120.22887844190733" width="230.4" id="textblock"><g><svg viewBox="0 0 230.4 120.22887844190733" height="120.22887844190733" width="230.4"><g transform="matrix(1,0,0,1,0,0)"><svg width="230.4" viewBox="3.200000047683716 -37.380001068115234 72.70000457763672 37.94000244140625" height="120.22887844190733" data-palette-color="#ffffff"><path d="M6.98-2.64L6.98-34.18 3.2-34.74 3.2-36.82 18.87-36.82Q28.56-36.82 33.96-32.08L33.96-32.08Q39.23-27.42 39.23-19.31L39.23-19.31Q39.23-13.48 36.52-8.89L36.52-8.89Q34.03-4.66 29.61-2.29L29.61-2.29Q25.32 0 20.36 0L20.36 0 3.2 0 3.2-2.08 6.98-2.64ZM18.75-33.86L11.5-33.86 11.5-2.93 20.31-2.93Q26.44-2.93 30.47-6.79L30.47-6.79Q34.62-10.82 34.62-17.31L34.62-17.31Q34.62-29.74 25.93-32.81L25.93-32.81Q22.92-33.86 18.75-33.86L18.75-33.86ZM63.62-37.38L63.62-37.38Q68.58-37.38 72.7-36.13L72.7-36.13Q74.51-35.57 75.73-34.89L75.73-34.89 75.17-28.37 73.56-28.37Q73.56-31.08 70.9-32.71L70.9-32.71Q68.06-34.45 63.11-34.45L63.11-34.45Q56.69-34.45 52.49-30.13L52.49-30.13Q48.31-25.78 48.31-19.26L48.31-19.26Q48.31-12.35 52.17-7.54L52.17-7.54Q54.78-4.3 58.79-3.03L58.79-3.03Q60.84-2.37 63.45-2.37 66.06-2.37 68.09-2.67 70.11-2.98 71.41-3.66L71.41-3.66Q73.95-5 73.95-8.2L73.95-8.2 75.56-8.2 75.9-1.9Q71.65 0.56 63.38 0.56L63.38 0.56Q54.25 0.56 48.8-4.74L48.8-4.74Q43.6-9.79 43.6-17.77L43.6-17.77Q43.6-26.61 49.75-32.18L49.75-32.18Q55.44-37.38 63.62-37.38Z" opacity="1" transform="matrix(1,0,0,1,0,0)" fill="#ffffff" class="undefined-text-0" data-fill-palette-color="primary" id="text-0"></path></svg></g></svg></g></svg></g></svg></g><g transform="matrix(1,0,0,1,298.0086697481972,0.9437270651443868)"><svg viewBox="0 0 142.3872 142.3872" height="142.3872" width="142.3872"><g><svg xmlns="http://www.w3.org/2000/svg" xmlns:xlink="http://www.w3.org/1999/xlink" version="1.1" x="0" y="0" viewBox="14.610000610351562 14.609999656677246 70.78099822998047 70.78099822998047" enable-background="new 0 0 100 100" xml:space="preserve" height="142.3872" width="142.3872" class="icon-icon-0" data-fill-palette-color="accent" id="icon-0"><path d="M42.272 50.423c-1.33 0-2.41 1.08-2.41 2.41s1.08 2.409 2.41 2.409 2.41-1.079 2.41-2.409S43.603 50.423 42.272 50.423zM50 50.423c-1.33 0-2.41 1.08-2.41 2.41s1.08 2.409 2.41 2.409c1.331 0 2.409-1.079 2.409-2.409S51.331 50.423 50 50.423zM57.728 50.423c-1.33 0-2.409 1.08-2.409 2.41s1.079 2.409 2.409 2.409c1.331 0 2.409-1.079 2.409-2.409S59.059 50.423 57.728 50.423zM35.966 40.072l-10 9.928 10 9.93 2.548-2.566L31.1 50l7.415-7.361L35.966 40.072zM64.034 40.072l-2.549 2.566L68.9 50l-7.415 7.363 2.549 2.566L74.033 50 64.034 40.072zM50 14.61c-19.514 0-35.39 15.876-35.39 35.39 0 19.515 15.876 35.391 35.39 35.391 19.515 0 35.391-15.876 35.391-35.391C85.391 30.486 69.515 14.61 50 14.61zM50 81.773c-17.52 0-31.774-14.253-31.774-31.773 0-17.52 14.254-31.774 31.774-31.774 17.521 0 31.773 14.254 31.773 31.774C81.773 67.521 67.521 81.773 50 81.773z" fill="#ffffff" data-fill-palette-color="accent"></path></svg></g></svg></g></svg></g></svg></g></svg></g><defs></defs></svg><rect width="576" height="360" fill="none" stroke="none" visibility="hidden"></rect></g></svg></g></svg>